<svg width="138" height="69" viewBox="0 0 138 69" fill="none" xmlns="http://www.w3.org/2000/svg">
<g clip-path="url(#clip0_0_3)">
<path d="M2.65057 46L11.7869 24.5594H11.9849L21.1211 46H17.246L10.8817 29.7923L13.286 28.18L5.96 46H2.65057ZM8.42086 38.3629H15.4074L16.5671 41.2197H7.40257L8.42086 38.3629ZM28.1988 25.3797C30.5559 25.3797 32.3945 25.9737 33.7145 27.1617C35.0345 28.3309 35.6945 29.9526 35.6945 32.0269C35.6945 32.8566 35.5625 33.6769 35.2985 34.4877C35.0533 35.2986 34.6573 36.0434 34.1105 36.7223C33.5825 37.3823 32.8659 37.9103 31.9608 38.3063C31.0745 38.7023 29.9808 38.9003 28.6796 38.9003H25.6813V46H22.3436V25.3797H28.1988ZM28.6513 35.6474C29.3679 35.6474 29.9713 35.5249 30.4616 35.2797C30.9519 35.0346 31.329 34.7329 31.593 34.3746C31.8759 33.9974 32.0739 33.6014 32.187 33.1866C32.3002 32.7717 32.3568 32.4134 32.3568 32.1117C32.3568 31.7911 32.3002 31.4329 32.187 31.0369C32.0928 30.622 31.9136 30.2354 31.6496 29.8771C31.3856 29.5189 31.0179 29.2171 30.5465 28.972C30.075 28.7269 29.481 28.6043 28.7645 28.6043H25.6813V35.6474H28.6513ZM37.4279 25.3797H40.7656V46H37.4279V25.3797ZM59.902 25.3797C62.2591 25.3797 64.0977 25.9737 65.4177 27.1617C66.7377 28.3309 67.3977 29.9526 67.3977 32.0269C67.3977 32.8566 67.2657 33.6769 67.0017 34.4877C66.7565 35.2986 66.3605 36.0434 65.8137 36.7223C65.2857 37.3823 64.5691 37.9103 63.664 38.3063C62.7777 38.7023 61.684 38.9003 60.3828 38.9003H57.3845V46H54.0468V25.3797H59.902ZM60.3545 35.6474C61.0711 35.6474 61.6745 35.5249 62.1648 35.2797C62.6551 35.0346 63.0323 34.7329 63.2963 34.3746C63.5791 33.9974 63.7771 33.6014 63.8903 33.1866C64.0034 32.7717 64.06 32.4134 64.06 32.1117C64.06 31.7911 64.0034 31.4329 63.8903 31.0369C63.796 30.622 63.6168 30.2354 63.3528 29.8771C63.0888 29.5189 62.7211 29.2171 62.2497 28.972C61.7783 28.7269 61.1843 28.6043 60.4677 28.6043H57.3845V35.6474H60.3545ZM71.3656 34.0069L71.6768 37.4011L71.5636 36.9203C71.9031 36.2037 72.3651 35.5909 72.9496 35.0817C73.5342 34.5537 74.1376 34.1577 74.7599 33.8937C75.4011 33.6109 75.9196 33.4694 76.3156 33.4694L76.1459 36.6657C75.2408 36.5903 74.4582 36.76 73.7982 37.1749C73.1382 37.5709 72.6196 38.1083 72.2425 38.7871C71.8653 39.4471 71.6768 40.1449 71.6768 40.8803V46H68.4805V34.0069H71.3656ZM75.7236 39.862C75.7236 38.6551 76.0065 37.5709 76.5722 36.6091C77.1568 35.6286 77.9582 34.8649 78.9765 34.318C80.0136 33.7523 81.1922 33.4694 82.5122 33.4694C83.8511 33.4694 85.0108 33.7523 85.9913 34.318C86.9908 34.8649 87.7639 35.6286 88.3108 36.6091C88.8576 37.5709 89.1311 38.6551 89.1311 39.862C89.1311 41.0877 88.8576 42.1909 88.3108 43.1714C87.7639 44.1331 86.9908 44.8969 85.9913 45.4626C84.9919 46.0283 83.8133 46.3111 82.4556 46.3111C81.1733 46.3111 80.0231 46.0566 79.0048 45.5474C77.9865 45.0194 77.1851 44.2746 76.6005 43.3129C76.0159 42.3323 75.7236 41.182 75.7236 39.862ZM78.9765 39.8903C78.9765 40.6069 79.1273 41.248 79.4291 41.8137C79.7308 42.3794 80.1456 42.832 80.6736 43.1714C81.2016 43.492 81.7862 43.6523 82.4273 43.6523C83.4456 43.6523 84.2753 43.294 84.9165 42.5774C85.5576 41.8609 85.8782 40.9651 85.8782 39.8903C85.8782 38.8343 85.5576 37.948 84.9165 37.2314C84.2753 36.496 83.4456 36.1283 82.4273 36.1283C81.7673 36.1283 81.1733 36.298 80.6453 36.6374C80.1362 36.9769 79.7308 37.4294 79.4291 37.9951C79.1273 38.5609 78.9765 39.1926 78.9765 39.8903ZM90.649 51.7703L88.7538 49.7903C89.3007 49.3566 89.725 48.8191 90.0267 48.178C90.3473 47.5369 90.5076 46.7731 90.5076 45.8869V34.0069H93.7321V46.0283C93.7321 47.4237 93.487 48.5929 92.9967 49.5357C92.5253 50.4786 91.7427 51.2234 90.649 51.7703ZM90.3096 29.7074C90.3096 29.2171 90.4981 28.8117 90.8753 28.4911C91.2713 28.1517 91.6956 27.982 92.1481 27.982C92.6007 27.982 93.0156 28.1517 93.3927 28.4911C93.7698 28.8117 93.9584 29.2171 93.9584 29.7074C93.9584 30.2166 93.7698 30.6314 93.3927 30.952C93.0156 31.2537 92.6007 31.4046 92.1481 31.4046C91.6956 31.4046 91.2713 31.2537 90.8753 30.952C90.4981 30.6314 90.3096 30.2166 90.3096 29.7074ZM101.437 46.3111C100.023 46.3111 98.8157 46.0377 97.8163 45.4909C96.8169 44.944 96.0437 44.1897 95.4969 43.228C94.9689 42.2474 94.7049 41.1349 94.7049 39.8903C94.7049 38.7023 95.0066 37.6274 95.61 36.6657C96.2323 35.6851 97.0526 34.912 98.0709 34.3463C99.108 33.7617 100.249 33.4694 101.493 33.4694C103.153 33.4694 104.52 33.9503 105.595 34.912C106.67 35.8549 107.386 37.2031 107.745 38.9569L98.0992 42.2097L97.3637 40.3994L104.831 37.7406L104.181 38.1083C103.973 37.5426 103.643 37.0523 103.191 36.6374C102.738 36.2226 102.097 36.0151 101.267 36.0151C100.268 36.0151 99.4569 36.364 98.8346 37.0617C98.2123 37.7406 97.9012 38.6269 97.9012 39.7206C97.9012 40.9086 98.2406 41.8514 98.9195 42.5491C99.6172 43.228 100.475 43.5674 101.493 43.5674C101.984 43.5674 102.455 43.4826 102.908 43.3129C103.36 43.1431 103.785 42.9169 104.181 42.634L105.651 45.01C105.029 45.406 104.341 45.7266 103.587 45.9717C102.851 46.198 102.135 46.3111 101.437 46.3111ZM118.498 44.8969C117.97 45.3306 117.32 45.6794 116.547 45.9434C115.773 46.1886 115.01 46.3111 114.255 46.3111C112.917 46.3111 111.738 46.0566 110.72 45.5474C109.72 45.0194 108.938 44.2934 108.372 43.3694C107.825 42.4266 107.552 41.3046 107.552 40.0034C107.552 38.6834 107.853 37.552 108.457 36.6091C109.06 35.6663 109.843 34.9497 110.805 34.4594C111.785 33.9503 112.822 33.6957 113.916 33.6957C114.934 33.6957 115.83 33.8371 116.603 34.12C117.376 34.384 118.046 34.7611 118.611 35.2514L117.027 37.3163C116.726 37.0711 116.33 36.8449 115.839 36.6374C115.368 36.43 114.821 36.3263 114.199 36.3263C113.577 36.3263 113.001 36.4866 112.473 36.8071C111.945 37.1277 111.531 37.5614 111.229 38.1083C110.927 38.6551 110.776 39.2869 110.776 40.0034C110.776 40.6823 110.937 41.3046 111.257 41.8703C111.578 42.4171 112.011 42.8509 112.558 43.1714C113.124 43.492 113.775 43.6523 114.51 43.6523C114.981 43.6523 115.415 43.5863 115.811 43.4543C116.226 43.3034 116.584 43.1149 116.886 42.8886L118.498 44.8969ZM120.615 28.7457H123.867V34.0069H126.979V36.5243H123.867V46H120.615V36.5243H118.578V34.0069H120.615V28.7457ZM131.448 46.2546C130.524 46.2546 129.647 46.0943 128.817 45.7737C128.007 45.4343 127.318 44.9629 126.753 44.3594L128.11 42.5491C128.638 43.0394 129.166 43.4071 129.694 43.6523C130.222 43.8974 130.713 44.02 131.165 44.02C131.693 44.02 132.146 43.9257 132.523 43.7371C132.919 43.5297 133.117 43.1997 133.117 42.7471C133.117 42.37 132.985 42.0777 132.721 41.8703C132.457 41.644 132.117 41.4649 131.703 41.3329C131.288 41.182 130.854 41.0406 130.401 40.9086C129.364 40.588 128.591 40.1166 128.082 39.4943C127.573 38.8531 127.318 38.1271 127.318 37.3163C127.318 36.694 127.469 36.1 127.771 35.5343C128.091 34.9497 128.582 34.4689 129.242 34.0917C129.921 33.7146 130.769 33.526 131.787 33.526C132.693 33.526 133.485 33.6297 134.163 33.8371C134.842 34.0257 135.474 34.3557 136.059 34.8271L134.814 36.7506C134.475 36.43 134.079 36.1849 133.626 36.0151C133.173 35.8266 132.759 35.7229 132.381 35.704C131.872 35.6851 131.439 35.7889 131.08 36.0151C130.741 36.2414 130.571 36.5337 130.571 36.892C130.571 37.2691 130.703 37.5709 130.967 37.7971C131.25 38.0234 131.608 38.2026 132.042 38.3346C132.476 38.4666 132.909 38.608 133.343 38.7589C134.211 39.0417 134.918 39.4471 135.465 39.9751C136.03 40.4843 136.313 41.2009 136.313 42.1249C136.313 42.8603 136.134 43.5391 135.776 44.1614C135.436 44.7837 134.899 45.2929 134.163 45.6889C133.447 46.066 132.542 46.2546 131.448 46.2546Z" fill="white"/>
</g>
<defs>
<clipPath id="clip0_0_3">
<rect width="138" height="69" fill="white"/>
</clipPath>
</defs>
</svg>
